<svg id="visual" viewBox="0 0 360 125" width="360" height="125" xmlns="http://www.w3.org/2000/svg" xmlns:xlink="http://www.w3.org/1999/xlink" version="1.1"><rect x="0" y="0" width="360" height="125" fill="#ea5353"></rect><defs><linearGradient id="grad1_0" x1="65.3%" y1="100%" x2="100%" y2="0%"><stop offset="-7.600000000000001%" stop-color="#f2e2e7" stop-opacity="1"></stop><stop offset="107.6%" stop-color="#f2e2e7" stop-opacity="1"></stop></linearGradient></defs><defs><linearGradient id="grad1_1" x1="65.3%" y1="100%" x2="100%" y2="0%"><stop offset="-7.600000000000001%" stop-color="#f2e2e7" stop-opacity="1"></stop><stop offset="107.6%" stop-color="#ea5353" stop-opacity="1"></stop></linearGradient></defs><defs><linearGradient id="grad2_0" x1="0%" y1="100%" x2="34.7%" y2="0%"><stop offset="-7.600000000000001%" stop-color="#f2e2e7" stop-opacity="1"></stop><stop offset="107.6%" stop-color="#f2e2e7" stop-opacity="1"></stop></linearGradient></defs><defs><linearGradient id="grad2_1" x1="0%" y1="100%" x2="34.7%" y2="0%"><stop offset="-7.600000000000001%" stop-color="#ea5353" stop-opacity="1"></stop><stop offset="107.6%" stop-color="#f2e2e7" stop-opacity="1"></stop></linearGradient></defs><g transform="translate(360, 125)"><path d="M-95 0C-96.5 -19.7 -97.9 -39.4 -89.2 -51.5C-80.5 -63.6 -61.6 -68 -45 -77.9C-28.4 -87.9 -14.2 -103.3 0 -118.7L0 0Z" fill="#f79ca9"></path><path d="M-47.5 0C-48.2 -9.9 -49 -19.7 -44.6 -25.8C-40.2 -31.8 -30.8 -34 -22.5 -39C-14.2 -43.9 -7.1 -51.7 0 -59.4L0 0Z" fill="#f2e2e7"></path></g><g transform="translate(0, 0)"><path d="M104 0C102.1 17.1 100.1 34.3 93.5 54C87 73.7 75.7 96.1 59.4 102.8C43 109.6 21.5 100.8 0 92L0 0Z" fill="#f79ca9"></path><path d="M52 0C51 8.6 50.1 17.1 46.8 27C43.5 36.9 37.9 48 29.7 51.4C21.5 54.8 10.8 50.4 0 46L0 0Z" fill="#f2e2e7"></path></g></svg>