<?xml version="1.0" encoding="UTF-8"?><svg id="a" xmlns="http://www.w3.org/2000/svg" viewBox="0 0 506.16 583"><path d="M216.56,431.2c0,31.46-14.18,69.79-44.64,100.25-47.67,47.67-113.27,59.38-146.51,26.14-33.24-33.24-21.54-98.83,26.14-146.51,38.79-38.79,89.43-53.76,124.87-40.1" style="fill:none; stroke:#fff; stroke-linecap:round; stroke-miterlimit:10; stroke-width:20px;"/><path d="M499.66,359.03c0,31.46-14.18,69.79-44.64,100.25-47.67,47.67-113.27,59.38-146.51,26.14-33.24-33.24-21.54-98.83,26.14-146.51,39.17-39.17,90.44-54.06,125.92-39.68" style="fill:none; stroke:#fff; stroke-linecap:round; stroke-miterlimit:10; stroke-width:20px;"/><path d="M360.58,205.1L223.09,42.93c-3.59-4.23-6.52-3.15-6.52,2.39v385.88" style="fill:none; stroke:#fff; stroke-linecap:round; stroke-miterlimit:10; stroke-width:20px;"/><path d="M499.66,359.03V12.16c0-6.65-3.05-7.58-6.77-2.07l-132.31,195.01h0" style="fill:none; stroke:#fff; stroke-linecap:round; stroke-miterlimit:10; stroke-width:20px;"/></svg>