<?xml version="1.0" encoding="UTF-8"?><svg id="a" xmlns="http://www.w3.org/2000/svg" viewBox="0 0 523 588.16"><circle cx="261.5" cy="276.6" r="261.5" style="fill:#ffe79c; stroke-width:0px;"/><path d="M416.5,369.74c-7.96-9.25-10.58-21.82-12.92-33.79-3.69-18.89-7.38-37.77-11.07-56.66-8.64-44.21-41.5-186.86-51.6-231.91-2.28-10.18-3.72-20.74-10.16-28.94-5.29-6.73-18.19-11.2-26.48-13.29-17.27.49-31.51.95-48.03,6-8.03,2.45-16.58,4.6-24.22,8.07-4.04,1.84-8.53,6.74-11.89,9.64-2.61,2.26-2.78,5.34-4.17,8.5-1.13,2.57-1.78,5.32-2.41,8.05-4.16,18.06-7.66,36.48-6.82,54.99.57,12.59-1.86,25.71-3.18,38.24-1.2,11.36-1.59,22.8-1.15,34.21.33,8.72,1.37,17.63.83,26.34-.29,4.69-.98,9.34-1.63,13.99-2.36,16.91-4.16,33.91-5.37,50.94-.35,4.95-.11,10.15.03,15.11.12,4.49.25,8.99.76,13.45.42,3.67,1.1,7.31,1.65,10.96,2.92,19.56,1.86,39.48.8,59.23-.41,7.71-3.95,14.96-3.99,22.68-.03,6.86,2.26,13.48,4.53,19.96,1.12,3.2,2.29,6.49,4.51,9.05,3.3,3.8,8.52,5.47,13.55,5.63,5.03.15,10-1.02,14.93-2.04,11.71-2.41,23.61-3.96,35.55-4.62,7.24-.4,14.51-.48,21.72-1.23,14.17-1.47,27.93-5.51,41.59-9.52,7.83-2.3,15.65-2.87,23.37-5.5,2.84-.97,5.72-1.82,8.6-2.67,4.22-1.24,8.43-2.48,12.63-3.78,10.79-3.34,21.48-7.06,31.73-11.82,1.99-.93,4-1.91,5.63-3.38,1.63-1.48,2.65-3.7,2.68-5.89Z" style="fill:#ead3dc; stroke-width:0px;"/><path d="M221.26,30.19c6.4-6.11,14.59-10.62,22.93-13.58s17.07-4.66,25.8-6.11c16.84-2.79,34.43-4.62,50.71.52-5.66-3.47-12.11-6.07-18.5-7.86C291.64.2,280.94.24,269.97.02c-4.06-.08-8.2.16-12.25.5-7.03.6-13.81,2.14-20.57,4.15-12.45,3.7-25.91,8.33-34.86,17.95,6.57,2.64,12.63,3.83,18.97,7.57Z" style="fill:#ea689d; stroke-width:0px;"/><path d="M441.7,526c-8.58-50.93-17-103.54-25.58-154.47-4.68,2.49-9.32,5.69-14.47,7.79-25.44,10.35-53.8,15.45-81.57,22.09-20.16,4.82-39.75,9.17-60.33,11.64-7.68.92-14.31,1.79-22.15,2.33-6.83.47-16.94.46-24.22.07-1.66,57.5-3.6,116.49,9.24,172.56,10.02.55,19.74-.46,29.56-2.28,5.64-1.05,11.29-2.1,16.93-3.15,17.32-3.22,34.74-5.93,51.95-9.66,3.29-.71,7.4-1.78,10.61-2.53,13.56-3.16,21.67-5.84,33.27-9.18,26.53-7.64,52.23-22.56,76.76-35.21Z" style="fill:#ea689d; stroke-width:0px;"/><path d="M222.12,30.69c.06-.55-.24-1.08-.74-1.3-5.75-2.5-11.61-4.73-17.57-6.67-.81-.26-1.71-.13-2.4.38-.63.48-.55.63-.92,1.28-.46.81-.79,2.2-.98,3.11l-54.59,275.22c-5.94,28.59-9.77,54.21-14.08,83.09-5.03,33.72-9.56,69.96-10.13,104.1,0,.78.18,1.55.57,2.23,10.14,17.82,22.05,34.63,35.5,50.11,15.83,18.21,34.31,34.9,56.72,43.84,2.88,1.15,5.67,1.16,8.71,1.78-9.72-56.82-9.45-114.79-8.43-172.43-5.05-3.78-8.11-9.17-10.14-15.14-1.7-5.01-1.79-8.51-2.07-13.79-.49-9.08-.21-19.81.45-28.95,3.24-45.48.73-91.77,4.22-137.24,1.68-21.89,1.6-45.32,3.68-67.92.54-5.83,1.11-15.37,1.37-21.22.2-4.6.54-9.19.9-13.78,2.24-28.94,6.53-57.89,9.93-86.7Z" style="fill:#c43b79; stroke-width:0px;"/><path d="M385.81,367.88l4.58,5.47c.82.99.31,2.49-.94,2.78l-145.02,32.66c-1.55.33-3.14-.28-4.07-1.56l-3.29-4.53c-.92-1.27-.24-3.07,1.29-3.42l144.92-32.26c.94-.21,1.92.13,2.53.86Z" style="fill:#211c49; stroke-width:0px;"/><path d="M353.34,365.99l-81.47,14.59c-3.86.69-7.49-2.07-7.86-5.97l-30.46-325.15c-.52-5.58,3.48-10.56,9.05-11.25l71.1-8.78c5.82-.72,11.07,3.54,11.58,9.38l28.06,327.18Z" style="fill:#211c49; stroke-width:0px;"/><polygon points="291.83 393.6 282.53 395.63 194.42 327.64 200.27 320.32 291.83 393.6" style="fill:#969696; stroke-width:0px;"/><polygon points="190.23 310.98 184.12 318.08 53.97 208.86 60.49 200.78 190.23 310.98" style="fill:#969696; stroke-width:0px;"/><path d="M200.34,356.09c4.85-.07,10.01-.17,14.7-.31,4.56-5,8.96-10.46,13.06-15.78,1.53-1.99,3.71-4.2,5-6.38.61-1.02.13-2.37.04-3.55-.27-3.44-.3-5.41-1.02-10.23-2.14-1.82-4.28-3.63-6.42-5.45-8.16-6.92-16.58-13.76-25.53-19.64-7.83,9.33-15.46,18.82-23.1,28.31-2.06,2.56-4.13,5.13-6.19,7.69,1.14,1.7,27.98,24.53,29.66,25.7" style="fill:#b2b2b2; stroke-width:0px;"/><line x1="310.28" y1="357.98" x2="281.29" y2="46.67" style="fill:none; stroke:#fff; stroke-miterlimit:10; stroke-width:3px;"/></svg>