<?xml version="1.0" encoding="UTF-8"?><svg id="a" xmlns="http://www.w3.org/2000/svg" viewBox="0 0 594.6 543.44"><circle cx="295.6" cy="271.72" r="271.72" style="fill:#ffe79c; stroke-width:0px;"/><polygon points="404.52 99.45 594.6 188.22 155.48 486.75 0 169.71 404.52 99.45" style="fill:#ea93b7; stroke-width:0px;"/><polygon points="594.6 188.22 155.48 486.75 153.85 539.59 577.13 219.53 594.6 188.22" style="fill:#ea689d; stroke-width:0px;"/><g id="b"><polygon points="153.85 538.04 .24 216.92 0 169.71 155.48 486.75 153.85 538.04" style="fill:#c43b79; stroke-width:0px;"/><line x1="66.25" y1="157.86" x2="254.38" y2="419.31" style="fill:none; stroke:#c43b79; stroke-miterlimit:10; stroke-width:2px;"/><line x1="118.47" y1="148.78" x2="330.87" y2="367.31" style="fill:none; stroke:#c43b79; stroke-miterlimit:10; stroke-width:2px;"/><line x1="166.65" y1="140.4" x2="388.99" y2="328.55" style="fill:none; stroke:#c43b79; stroke-miterlimit:10; stroke-width:1.5px;"/><line x1="213.43" y1="132.26" x2="433.99" y2="297.2" style="fill:none; stroke:#c43b79; stroke-miterlimit:10; stroke-width:1.5px;"/><line x1="251.96" y1="125.56" x2="473.34" y2="271.3" style="fill:none; stroke:#c43b79; stroke-miterlimit:10; stroke-width:1.5px;"/><line x1="284.46" y1="119.91" x2="503" y2="250.29" style="fill:none; stroke:#c43b79; stroke-miterlimit:10;"/><line x1="320.07" y1="113.72" x2="526.51" y2="234.31" style="fill:none; stroke:#c43b79; stroke-miterlimit:10;"/><line x1="340.36" y1="110.19" x2="548.85" y2="219.12" style="fill:none; stroke:#c43b79; stroke-miterlimit:10;"/><line x1="362.65" y1="106.31" x2="567.19" y2="206.66" style="fill:none; stroke:#c43b79; stroke-miterlimit:10;"/><line x1="381.93" y1="102.96" x2="580.78" y2="197.42" style="fill:none; stroke:#c43b79; stroke-miterlimit:10;"/><line x1="254.38" y1="419.31" x2="253.59" y2="463.93" style="fill:none; stroke:#c43b79; stroke-miterlimit:10; stroke-width:2px;"/><line x1="330.69" y1="366.83" x2="316.35" y2="416.52" style="fill:none; stroke:#c43b79; stroke-miterlimit:10; stroke-width:2px;"/><line x1="388.99" y1="328.55" x2="368.3" y2="377.28" style="fill:none; stroke:#c43b79; stroke-miterlimit:10; stroke-width:2px;"/><line x1="433.26" y1="296.66" x2="411.16" y2="344.9" style="fill:none; stroke:#c43b79; stroke-miterlimit:10; stroke-width:1.5px;"/><line x1="472.55" y1="270.34" x2="450.22" y2="315.4" style="fill:none; stroke:#c43b79; stroke-miterlimit:10; stroke-width:1.5px;"/><line x1="503" y1="250.29" x2="483.13" y2="290.54" style="fill:none; stroke:#c43b79; stroke-miterlimit:10;"/><line x1="526.51" y1="234.31" x2="506.57" y2="272.83" style="fill:none; stroke:#c43b79; stroke-miterlimit:10;"/><line x1="548.85" y1="219.12" x2="531.08" y2="254.32" style="fill:none; stroke:#c43b79; stroke-miterlimit:10;"/><line x1="567.19" y1="206.66" x2="549.03" y2="240.76" style="fill:none; stroke:#c43b79; stroke-miterlimit:10;"/><line x1="580.78" y1="197.42" x2="563.79" y2="229.61" style="fill:none; stroke:#c43b79; stroke-miterlimit:10;"/></g><g id="c"><polygon points="139.09 298.13 49.01 160.87 49.01 137.33 130.15 253.46 139.09 298.13" style="fill:#211c49; stroke-width:0px;"/><polygon points="183.38 283.24 139.09 299.87 130.15 253.46 161.79 243.04 183.38 283.24" style="fill:#504d89; stroke-width:0px;"/><polygon points="161.79 243.04 130.15 253.46 49.01 137.33 73.45 133.36 161.79 243.04" style="fill:#7d7dd4; stroke-width:0px;"/></g><g id="d"><polygon points="466.04 162.77 364.27 107.14 366.98 92.92 463.45 142.79 466.04 162.77" style="fill:#211c49; stroke-width:0px;"/><polygon points="477.22 156.78 466.04 162.77 463.45 142.79 470.58 139.18 477.22 156.78" style="fill:#504d89; stroke-width:0px;"/><polygon points="470.58 139.18 463.45 142.79 366.98 92.92 378.12 90.78 470.58 139.18" style="fill:#7d7dd4; stroke-width:0px;"/></g><g id="e"><polygon points="448.05 174.01 331.78 110.46 334.88 94.22 445.09 151.19 448.05 174.01" style="fill:#211c49; stroke-width:0px;"/><polygon points="460.82 167.17 448.05 174.01 445.09 151.19 453.24 147.07 460.82 167.17" style="fill:#504d89; stroke-width:0px;"/><polygon points="453.24 147.07 445.09 151.19 334.88 94.22 347.6 91.78 453.24 147.07" style="fill:#7d7dd4; stroke-width:0px;"/></g><g id="f"><polygon points="426.66 185.61 298.69 115.66 302.1 97.78 423.4 160.49 426.66 185.61" style="fill:#211c49; stroke-width:0px;"/><polygon points="440.72 178.09 426.66 185.61 423.4 160.49 432.38 155.95 440.72 178.09" style="fill:#504d89; stroke-width:0px;"/><polygon points="432.38 155.95 423.4 160.49 302.1 97.78 316.11 95.1 432.38 155.95" style="fill:#7d7dd4; stroke-width:0px;"/></g><g id="g"><polygon points="368.85 209.63 239.77 128.02 242.82 108.85 364.58 175.39 368.85 209.63" style="fill:#211c49; stroke-width:0px;"/><polygon points="386.74 202.11 368.85 209.63 364.58 175.39 376.58 170.18 386.74 202.11" style="fill:#504d89; stroke-width:0px;"/><polygon points="376.58 170.18 364.58 175.39 242.82 108.85 263.21 104.48 376.58 170.18" style="fill:#7d7dd4; stroke-width:0px;"/></g><g id="h"><polygon points="320.93 228.23 192.95 135.56 196 116.38 313.67 193.35 320.93 228.23" style="fill:#211c49; stroke-width:0px;"/><polygon points="343.54 218.19 320.93 228.23 313.67 193.35 329.67 186.65 343.54 218.19" style="fill:#504d89; stroke-width:0px;"/><polygon points="329.67 186.65 313.67 193.35 196 116.38 216.39 112.01 329.67 186.65" style="fill:#7d7dd4; stroke-width:0px;"/></g><g id="i"><polygon points="219.02 269.19 111.52 149.59 111.52 126.05 212.42 223.68 219.02 269.19" style="fill:#211c49; stroke-width:0px;"/><path d="M250.76,258.04l-30.62,11.15c-1.44.54-1.57-1.66-1.86-3.16l-5.86-42.34,26.06-7.44,13.21,36.39c.78,1.44.62,4.82-.93,5.4Z" style="fill:#504d89; stroke-width:0px;"/><polygon points="238.47 216.24 212.42 223.68 111.52 126.05 133.28 122.52 238.47 216.24" style="fill:#7d7dd4; stroke-width:0px;"/></g></svg>