<?xml version="1.0" encoding="UTF-8"?><svg id="a" xmlns="http://www.w3.org/2000/svg" viewBox="0 0 595.73 552.12"><circle cx="313.51" cy="276.06" r="276.06" style="fill:#ffe79c; stroke-width:0px;"/><path d="M8.75,410.76c-4.13-13.69-9.7-36.51-8.61-50.77s5.95-28.46,15.22-39.35c2.35-2.76,4.96-5.29,7.56-7.81,6.36-6.16,13.54-10.99,21.35-15.15,5.61-2.99,11.03-6.23,17.14-7.98,14.85-4.25,25.72-5.21,43.5-6.74,6.15-.53,14.22-2.28,20.17-3.93,3.46-.96,6.89-2.07,10.09-3.71,2.8-1.44,5.39-3.27,7.86-5.22,12.04-9.5,21.47-21.83,31.44-33.49s19.47-23.2,33.94-28.3c16.37-5.77,38.23-1.85,53.34,7.42,6.41,3.93,11.81,7.88,17.16,13.16,7.11,7.03,15.25,15.56,19.7,24.52-16.94,10.07-34.82,19.58-51.76,29.65-77.2,45.9-152.1,101.83-238.1,127.7Z" style="fill:#c43b79; stroke-width:0px;"/><path d="M297.39,254.89c-5.46-7.8-18.66-20.16-26.04-24.51-11.29-6.66-10.97-7.62-23.84-10.07-12.88-2.45-31.23.91-42.32,7.89-15.97,10.06-23.04,29.37-34.82,44.12-5.35,6.7-11.78,12.54-18.98,17.2-15.85,10.25-37.8,13.02-56.51,15.52-5.01.67-9.19,1.02-14.17,1.87-29.29,4.99-51.51,20.79-67.23,48.34-2.76,4.84-4.97,10.63-6.18,16.07-1.31,5.85-1.5,20.88-.88,26.85,2.48,23.88,14.96,41.74,29.85,60.58,12.52,15.84,16.65,19.81,31.44,33.56,7.13,6.63,14.44,14.02,23.31,18.02s18.9,7.77,32.85,10.26c40.51,0,39.91-5.87,56.28-14.74,16.31-8.83,28.96-28.82,38.03-46.22,3.46-6.63,6.08-14.74,9.54-21.37,4.28-8.21,8.66-15.14,14.13-22.61,19.78-27.02,67.82-27.02,82.67-56.56,4.89-9.73,7.27-17.12,8.47-28.57,1.11-10.61-1.14-26.4-7.24-35.15-3.2-4.58-2.93-5.66-6.36-10.07-7.56-9.71-13.84-21.01-22-30.41Z" style="fill:#ea689d; stroke-width:0px;"/><circle cx="221.54" cy="333.18" r="47.74" style="fill:#c43b79; stroke-width:0px;"/><path d="M526.85,65.41c-1-.28-2.12-.04-2.94.61-.81.64-1.3,1.67-1.31,2.71-.01.75.22,1.48.52,2.16.32.72.74,1.42,1.33,1.94.59.52,2.08,2.63,2.87,2.56,1.45-.11,2.47-2.23,3.27-3.44.42-.63,1.96-.9,2.2-1.61.25-.73-1.88-2.35-2.45-2.68-1.17-.7-2.13-1.87-3.49-2.25Z" style="fill:#bababa; stroke-width:0px;"/><path d="M508.93,81.67c-1-.28-2.12-.04-2.94.61s-1.3,1.67-1.31,2.71c-.01.75.22,1.48.52,2.16.32.72.74,1.42,1.33,1.94.59.52,2.08,2.63,2.87,2.56,1.45-.11,2.47-2.23,3.27-3.44.42-.63,1.96-.9,2.2-1.61.25-.73-1.88-2.35-2.45-2.68-1.17-.71-2.13-1.87-3.49-2.25Z" style="fill:#bababa; stroke-width:0px;"/><path d="M544.32,50.13c-1-.28-2.12-.04-2.94.61-.81.64-1.3,1.67-1.31,2.71-.01.75.22,1.48.52,2.16.32.72.74,1.42,1.33,1.94.59.52,2.09,2.28,2.88,2.22,1.45-.11,2.64-1.66,3.44-2.87.42-.63,1.88-1.1,2.12-1.81.25-.73-1.98-2.38-2.55-2.71-1.17-.7-2.13-1.87-3.49-2.25Z" style="fill:#bababa; stroke-width:0px;"/><path d="M590.14,60.06c-.11-.63.17-1.31-.07-1.9-.24-.61-.79-1.04-1.31-1.43-5.88-4.46-11.77-8.92-17.65-13.38-1.22-.92-2.54-1.89-4.07-1.94-1.75-.06-3.3,1.07-4.66,2.17-14.46,11.58-51.92,46.16-54.42,48.09-.09.07-.7.54-1.5,1.22,0,0-2.21,1.56-3.55,3.38-1.76,2.39-2.26,5.44-3.08,8.29-2.37,8.24-8.81,16.11-16.1,20.62,2.51,1.97,4,5,5.75,7.67,3.8,5.8,8.36,11.4,12.1,17.25,4.03-3.44,8.84-7.11,13.23-10.08,2.54-1.71,7.08-3.63,10.1-4.15.63-.11,1.33-.29,2.2-.6,6.05-2.22,8.5-4,13.73-8.68,17.24-15.42,36.28-31.68,54.89-45.43-4.05-8.77-4.07-12.03-5.59-21.1ZM524.01,102.85c-2.08,1.69-5.13,1.37-6.82-.71s-1.37-5.13.71-6.82l42.07-34.15c2.08-1.69,5.13-1.37,6.82.71s1.37,5.13-.71,6.82l-42.07,34.15ZM578.53,84.04l-42.07,34.15c-2.08,1.69-5.13,1.37-6.82-.71s-1.37-5.13.71-6.82l42.07-34.15c2.08-1.69,5.13-1.37,6.82.71,1.69,2.07,1.37,5.13-.71,6.82Z" style="fill:#211c49; stroke-width:0px;"/><polygon points="484.65 124.52 502.15 149.66 252.37 335.19 229.42 302.22 484.65 124.52" style="fill:#504d89; stroke-width:0px;"/><circle cx="221.54" cy="333.18" r="32.15" style="fill:#211c49; stroke-width:0px;"/><rect x="109.93" y="380.15" width="19.47" height="55.95" transform="translate(-221.61 154.33) rotate(-37.02)" style="fill:#211c49; stroke-width:0px;"/><line x1="110.45" y1="395.88" x2="486.86" y2="127.69" style="fill:none; stroke:#fff; stroke-miterlimit:10;"/><line x1="115.93" y1="403.58" x2="490.78" y2="133.58" style="fill:none; stroke:#fff; stroke-miterlimit:10;"/><line x1="122.4" y1="412.66" x2="494.71" y2="139.47" style="fill:none; stroke:#fff; stroke-miterlimit:10;"/><line x1="127.4" y1="419.9" x2="499.61" y2="145.35" style="fill:none; stroke:#fff; stroke-miterlimit:10;"/></svg>